<svg id="visual" viewBox="0 0 900 300" width="900" height="300" xmlns="http://www.w3.org/2000/svg" xmlns:xlink="http://www.w3.org/1999/xlink" version="1.1"><rect x="0" y="0" width="900" height="300" fill="#001220"></rect><path d="M0 60L11.5 68.7C23 77.3 46 94.7 69 103.8C92 113 115 114 138.2 110.2C161.3 106.3 184.7 97.7 207.8 91.5C231 85.3 254 81.7 277 78.8C300 76 323 74 346 78.7C369 83.3 392 94.7 415.2 101.2C438.3 107.7 461.7 109.3 484.8 101.5C508 93.7 531 76.3 554 73.5C577 70.7 600 82.3 623 89.7C646 97 669 100 692.2 100C715.3 100 738.7 97 761.8 94C785 91 808 88 831 87.7C854 87.3 877 89.7 888.5 90.8L900 92L900 0L888.5 0C877 0 854 0 831 0C808 0 785 0 761.8 0C738.7 0 715.3 0 692.2 0C669 0 646 0 623 0C600 0 577 0 554 0C531 0 508 0 484.8 0C461.7 0 438.3 0 415.2 0C392 0 369 0 346 0C323 0 300 0 277 0C254 0 231 0 207.8 0C184.7 0 161.3 0 138.2 0C115 0 92 0 69 0C46 0 23 0 11.5 0L0 0Z" fill="#fa7268"></path><path d="M0 81L11.5 82.5C23 84 46 87 69 89.2C92 91.3 115 92.7 138.2 89.7C161.3 86.7 184.7 79.3 207.8 77.8C231 76.3 254 80.7 277 78.7C300 76.7 323 68.3 346 66C369 63.7 392 67.3 415.2 67.3C438.3 67.3 461.7 63.7 484.8 68C508 72.3 531 84.7 554 87C577 89.3 600 81.7 623 81.2C646 80.7 669 87.3 692.2 86.3C715.3 85.3 738.7 76.7 761.8 69.8C785 63 808 58 831 60C854 62 877 71 888.5 75.5L900 80L900 0L888.5 0C877 0 854 0 831 0C808 0 785 0 761.8 0C738.7 0 715.3 0 692.2 0C669 0 646 0 623 0C600 0 577 0 554 0C531 0 508 0 484.8 0C461.7 0 438.3 0 415.2 0C392 0 369 0 346 0C323 0 300 0 277 0C254 0 231 0 207.8 0C184.7 0 161.3 0 138.2 0C115 0 92 0 69 0C46 0 23 0 11.5 0L0 0Z" fill="#ef5f67"></path><path d="M0 77L11.5 76.7C23 76.3 46 75.7 69 72.5C92 69.3 115 63.7 138.2 61.2C161.3 58.7 184.7 59.3 207.8 57C231 54.7 254 49.3 277 50C300 50.7 323 57.3 346 62.7C369 68 392 72 415.2 74.2C438.3 76.3 461.7 76.7 484.8 72.8C508 69 531 61 554 59C577 57 600 61 623 60.3C646 59.7 669 54.3 692.2 52.7C715.3 51 738.7 53 761.8 54.3C785 55.7 808 56.3 831 56.2C854 56 877 55 888.5 54.5L900 54L900 0L888.5 0C877 0 854 0 831 0C808 0 785 0 761.8 0C738.7 0 715.3 0 692.2 0C669 0 646 0 623 0C600 0 577 0 554 0C531 0 508 0 484.8 0C461.7 0 438.3 0 415.2 0C392 0 369 0 346 0C323 0 300 0 277 0C254 0 231 0 207.8 0C184.7 0 161.3 0 138.2 0C115 0 92 0 69 0C46 0 23 0 11.5 0L0 0Z" fill="#e34c67"></path><path d="M0 31L11.5 34C23 37 46 43 69 42.8C92 42.7 115 36.3 138.2 35.2C161.3 34 184.7 38 207.8 40C231 42 254 42 277 44C300 46 323 50 346 49.8C369 49.7 392 45.3 415.2 41C438.3 36.7 461.7 32.3 484.8 31.5C508 30.7 531 33.3 554 36C577 38.7 600 41.3 623 42.8C646 44.3 669 44.7 692.2 44.2C715.3 43.7 738.7 42.3 761.8 44C785 45.7 808 50.3 831 47.8C854 45.3 877 35.7 888.5 30.8L900 26L900 0L888.5 0C877 0 854 0 831 0C808 0 785 0 761.8 0C738.7 0 715.3 0 692.2 0C669 0 646 0 623 0C600 0 577 0 554 0C531 0 508 0 484.8 0C461.7 0 438.3 0 415.2 0C392 0 369 0 346 0C323 0 300 0 277 0C254 0 231 0 207.8 0C184.7 0 161.3 0 138.2 0C115 0 92 0 69 0C46 0 23 0 11.5 0L0 0Z" fill="#d53867"></path><path d="M0 20L11.5 20.2C23 20.3 46 20.7 69 20.7C92 20.7 115 20.3 138.2 20.5C161.3 20.7 184.7 21.3 207.8 23.3C231 25.3 254 28.7 277 27.2C300 25.7 323 19.3 346 17.3C369 15.3 392 17.7 415.2 19.8C438.3 22 461.7 24 484.8 26.2C508 28.3 531 30.7 554 29C577 27.3 600 21.7 623 19C646 16.3 669 16.7 692.2 16.5C715.3 16.3 738.7 15.7 761.8 16.8C785 18 808 21 831 24.5C854 28 877 32 888.5 34L900 36L900 0L888.5 0C877 0 854 0 831 0C808 0 785 0 761.8 0C738.7 0 715.3 0 692.2 0C669 0 646 0 623 0C600 0 577 0 554 0C531 0 508 0 484.8 0C461.7 0 438.3 0 415.2 0C392 0 369 0 346 0C323 0 300 0 277 0C254 0 231 0 207.8 0C184.7 0 161.3 0 138.2 0C115 0 92 0 69 0C46 0 23 0 11.5 0L0 0Z" fill="#c62368"></path></svg>